<?xml version="1.0" encoding="UTF-8"?>
<svg xmlns="http://www.w3.org/2000/svg" version="1.1" viewBox="0 0 326 285">
  <defs>
    <style>
      .cls-1 {
        fill: #f08478;
      }

      .cls-2 {
        fill: #197c6f;
      }

      .cls-3 {
        fill: #ed685d;
      }

      .cls-4 {
        isolation: isolate;
      }

      .cls-5 {
        fill: #ca4a3c;
      }

      .cls-6 {
        fill: #0f606a;
      }
    </style>
  </defs>
  <!-- Generator: Adobe Illustrator 28.7.4, SVG Export Plug-In . SVG Version: 1.2.0 Build 166)  -->
  <g>
    <g id="Camada_1">
      <g>
        <g>
          <path class="cls-1" d="M175.7,64.9c.4-2.2,2.3-3.8,4.5-3.8,4.2.1,11,3.7,10,14.6-.6,7.3-8.7,26.8-1.5,34.3,7.2,7.6,21.8-2.1,28.2-9,8.4-9.1,37.1-47,10-84.5-1.6-2.2-1.6-5.2.1-7.3h0c2.2-2.8,6.4-3.2,9-.7,8.2,7.8,22.5,27.4,15.7,65.7-8.3,47-68.7,85.1-85.5,93.9-2.5,1.3-5.5.9-7.5-1.1-5.4-5.4-14.5-18.6-7.8-42.7,8.7-31.5,21.2-38.8,24.7-59.4h0Z"/>
          <g>
            <path class="cls-5" d="M143.6,128.9c.6-3.4-.8-6.8-3.8-8.6-3.6-2.2-7.3-4.5-9.6-6.2-8.4-6.2-15.9-13.4-20.9-20.2-7.3-10.1-13.5-23.6-11.1-36.1.8-3.9,2.4-7.4,4.7-10.6,2.9-4.1,6.8-7.5,11.2-10.2V.3c-31.8.4-57.4,26.5-57.4,58.5s.2,4.6.4,6.9c.9,13.8,5.2,29.2,16.4,44.7,8.6,12,22.5,24.3,37.1,35.2,13.3,9.9,27.9,18.3,41.6,23.2-5.8-7-12.4-19.8-8.6-40h0Z"/>
            <path class="cls-3" d="M145.9,9.5C136.8,3.5,125.8,0,114.1,0,81.9,0,55.9,26.2,55.9,58.6s.2,4.6.4,6.9c.6,8.8,2.9,18.2,7.5,27.9-2.7-26.8,19.8-49.3,46.3-49.3s39.3,11.4,45.9,39.2c.3-.6,3-6,5.2-13.3,5.2-16.9,7.8-42.7-15.3-60.3h0Z"/>
          </g>
        </g>
        <path class="cls-5" d="M223.4,19.7c-5.4-9.1-12.1-14.8-16.9-17.4-3.7-2-6.7-1.6-8.5,1.6h0c-1.4,2.5.6,5.9,2.6,7.8,10.8,10.4,16.3,22.1,20.2,33.9.3.9,0,2-.6,2.7-1.4,1.5-3.9,1-4.6-1-2.6-7.5-6.6-13.5-11.3-19.6-6.9-9-14.4-14.7-19.9-17.1-3.6-1.5-7.2-1-8.6,2.6h0c-1.1,2.8.3,5.4,2.6,7.2,14.5,10.9,23.5,24.7,29.2,38.7.3.7.3,2.2-.2,2.8-.9.9-2.3.5-2.9-.6-3.9-6.6-6-9.4-9.9-14.3-6.4-8-9.9-10.1-15.5-13-2.4-1.2-5.6-.9-7.3,1.4-2.1,2.8-1.1,6,2.1,8.4,26.1,20.3,31.3,42.9,28.8,61.7,0-.2,1.5-1,1.7-1.1,1.6-1.1,3.1-2.3,4.5-3.5,4.8-4.2,8.9-9.2,12.4-14.5,3.3-5,6.4-10.4,8.2-16.2,2-6.3,2.6-13.1,2.5-19.7,0-.8,0-1.7-.1-2.6-.6-9.8-3.3-19.6-8.3-28h0Z"/>
      </g>
      <g class="cls-4">
        <path class="cls-6" d="M14.4,218.1c-3.7-1.9-6.5-4.6-8.4-8.2-1.9-3.6-2.9-7.8-2.9-12.7s1-9.2,2.9-12.8c1.9-3.6,4.7-6.4,8.4-8.3,3.6-1.9,8-2.9,12.9-2.9s7.9.7,11.4,2.1c3.5,1.4,6.1,3.3,7.8,5.6.5.7.8,1.4.8,2.2,0,1.1-.6,2.1-1.8,3-.5.4-1.2.6-2,.6s-1.3-.1-2-.4-1.2-.7-1.7-1.2c-1.5-1.7-3.3-3-5.2-3.7-2-.8-4.4-1.2-7.3-1.2-4.8,0-8.6,1.5-11.3,4.5-2.7,3-4,7.2-4,12.5s1.4,9.4,4.1,12.4c2.7,3,6.5,4.4,11.4,4.4s10-1.6,13.3-4.9c1.4-1.3,2.6-1.9,3.8-1.9s1.5.3,2.2.8c1,.9,1.5,1.9,1.5,2.9s-.3,1.6-.9,2.3c-1.9,2.4-4.6,4.3-8.1,5.7-3.5,1.4-7.5,2.1-11.8,2.1s-9.3-1-13-2.9Z"/>
        <path class="cls-6" d="M64.5,218.4c-3.1-1.7-5.5-4.1-7.2-7.2-1.7-3.1-2.6-6.8-2.6-11v-23c0-1.2.4-2.2,1.2-2.9.8-.7,1.9-1.1,3.2-1.1s2.4.4,3.2,1.1c.8.7,1.2,1.7,1.2,2.9v23.2c0,4.4,1,7.7,3.1,10.1,2.1,2.3,5.1,3.5,9,3.5s6.8-1.2,8.9-3.5c2.1-2.4,3.2-5.7,3.2-10.1v-23.2c0-1.2.4-2.2,1.2-2.9.8-.7,1.9-1.1,3.2-1.1s2.4.4,3.2,1.1c.8.7,1.2,1.7,1.2,2.9v23c0,4.1-.9,7.7-2.6,10.9-1.7,3.1-4.2,5.6-7.4,7.3-3.2,1.7-6.9,2.6-11.1,2.6s-7.8-.8-10.9-2.5Z"/>
        <path class="cls-6" d="M106.8,219.9c-.8-.7-1.2-1.7-1.2-2.9v-39.8c0-1.2.4-2.2,1.2-2.9.8-.7,1.9-1.1,3.2-1.1s2.3.4,3.2,1.1c.8.7,1.3,1.7,1.3,2.9v39.8c0,1.2-.4,2.2-1.3,2.9-.8.7-1.9,1.1-3.2,1.1s-2.4-.4-3.2-1.1Z"/>
        <path class="cls-6" d="M126.6,217.6c-1.9-1.8-2.8-4.2-2.8-7.4v-26.5c0-3.1.9-5.5,2.7-7.2,1.8-1.7,4.3-2.6,7.5-2.6h9.3c5.1,0,9.5.9,13.2,2.8,3.7,1.9,6.6,4.5,8.5,8,2,3.5,3,7.7,3,12.5s-1,9-3,12.4c-2,3.5-4.8,6.1-8.5,8-3.7,1.8-8.1,2.8-13.2,2.8h-8.8c-3.4,0-6-.9-7.8-2.7ZM142.6,213.5c5.5,0,9.6-1.3,12.3-4,2.7-2.7,4-6.8,4-12.3s-1.4-9.7-4.1-12.4c-2.7-2.7-6.8-4.1-12.3-4.1h-7.1c-.9,0-1.6.3-2.1.9-.5.6-.8,1.4-.8,2.4v26.3c0,1,.3,1.8.8,2.4.5.6,1.2.9,2.1.9h7.1Z"/>
        <path class="cls-6" d="M175.6,219.8c-.8-.7-1.2-1.7-1.2-2.9v-23.2c0-6.4,1.8-11.4,5.5-15.1,3.7-3.6,8.8-5.4,15.3-5.4s8,.8,11.1,2.5c3.1,1.6,5.5,4,7.2,7.1,1.7,3.1,2.5,6.7,2.5,10.9v23.2c0,1.2-.4,2.2-1.2,2.9-.8.7-1.9,1.1-3.2,1.1s-2.4-.4-3.2-1.1c-.8-.7-1.2-1.7-1.2-2.9v-10.8h-24v10.8c0,1.2-.4,2.2-1.2,2.9-.8.7-1.9,1.1-3.2,1.1s-2.4-.4-3.2-1.1ZM207.2,199.3v-5.8c0-4.4-1-7.8-3-10-2-2.2-5-3.4-9-3.4-8,0-12,4.4-12,13.3v5.8h24Z"/>
        <path class="cls-6" d="M225.9,217.6c-1.9-1.8-2.8-4.2-2.8-7.4v-26.5c0-3.1.9-5.5,2.7-7.2,1.8-1.7,4.3-2.6,7.5-2.6h9.3c5.1,0,9.5.9,13.2,2.8,3.7,1.9,6.6,4.5,8.5,8,2,3.5,3,7.7,3,12.5s-1,9-3,12.4c-2,3.5-4.8,6.1-8.5,8-3.7,1.8-8.1,2.8-13.2,2.8h-8.8c-3.4,0-6-.9-7.8-2.7ZM241.9,213.5c5.5,0,9.6-1.3,12.3-4,2.7-2.7,4-6.8,4-12.3s-1.4-9.7-4.1-12.4c-2.7-2.7-6.8-4.1-12.3-4.1h-7.1c-.9,0-1.6.3-2.1.9-.5.6-.8,1.4-.8,2.4v26.3c0,1,.3,1.8.8,2.4.5.6,1.2.9,2.1.9h7.1Z"/>
        <path class="cls-6" d="M284.8,217.9c-3.7-2-6.6-4.8-8.5-8.4-1.9-3.6-2.9-7.8-2.9-12.4s1-8.8,2.9-12.4c1.9-3.6,4.8-6.4,8.5-8.4,3.7-2,8.2-3,13.4-3s9.6,1,13.4,3c3.7,2,6.6,4.8,8.5,8.4,1.9,3.6,2.9,7.8,2.9,12.4s-1,8.8-2.9,12.4c-1.9,3.6-4.8,6.4-8.5,8.4-3.7,2-8.2,3-13.4,3s-9.6-1-13.4-3ZM309.9,209.4c2.8-3,4.2-7.2,4.2-12.4s-1.4-9.4-4.3-12.4c-2.9-3-7-4.5-12.2-4.5s-8.6,1.5-11.2,4.6c-2.7,3.1-4,7.2-4,12.3s1.4,9.3,4.2,12.4c2.8,3,6.7,4.5,11.7,4.5s9-1.5,11.7-4.5Z"/>
      </g>
      <g class="cls-4">
        <g class="cls-4">
          <path class="cls-2" d="M10.9,273.1c-.3-.4-.5-.9-.5-1.6v-38.5c0-.7.2-1.2.5-1.6.3-.4.8-.6,1.4-.6s1.1.2,1.5.6c.3.4.5.9.5,1.6v3.4c2.7-3.7,6.7-5.6,11.9-5.6s7.7,1.2,10.2,3.6,3.7,5.7,3.7,9.8-.6,5.3-1.7,7.4c-1.1,2.1-2.8,3.7-4.9,4.8-2.1,1.1-4.6,1.7-7.5,1.7s-4.6-.4-6.5-1.3c-1.9-.9-3.6-2.3-5.2-4.1v18.8c0,.6-.2,1.2-.5,1.6-.4.4-.9.6-1.5.6s-1.1-.2-1.4-.6ZM33.4,252c1.8-1.9,2.8-4.5,2.8-7.8s-.9-5.7-2.7-7.4c-1.8-1.7-4.4-2.6-7.7-2.6s-6.3.9-8.3,2.7c-2,1.8-3,4.3-3,7.4s.5,3.9,1.4,5.5c.9,1.6,2.3,2.8,4,3.7,1.7.9,3.7,1.3,6,1.3,3.2,0,5.8-.9,7.6-2.8Z"/>
          <path class="cls-2" d="M50.4,255.9c-2-1.5-3-3.7-3-6.4s1-4.8,3.1-6.4,4.9-2.4,8.5-2.4,4,.3,5.6.9c1.6.6,2.9,1.3,3.8,2.3v-3.4c0-2-.7-3.6-2-4.7-1.3-1.1-3.3-1.6-5.9-1.6s-6.2.8-8.6,2.4c-.6.4-1.1.5-1.5.5s-.7-.1-1.1-.4c-.4-.3-.6-.7-.6-1.2s.2-1,.7-1.3c1.3-1,2.9-1.8,4.9-2.4s4-.9,6.1-.9c3.8,0,6.7.9,8.8,2.6,2.1,1.7,3.1,4.1,3.1,7.2v15.4c0,1.4-.6,2.1-1.9,2.1s-1-.2-1.4-.6c-.4-.4-.5-.9-.5-1.5v-1.9c-2.2,2.6-5.5,4-10,4s-6.2-.8-8.2-2.3ZM65.9,253.4c1.7-1.1,2.6-2.4,2.6-4.1s-.8-3-2.4-3.9c-1.6-.9-3.9-1.4-6.9-1.4s-4.4.5-5.8,1.4c-1.4.9-2,2.3-2,4.1s.7,3.1,2,4c1.3.9,3.2,1.4,5.7,1.4s5-.5,6.8-1.6Z"/>
        </g>
        <g class="cls-4">
          <path class="cls-2" d="M82.3,257.7c-.3-.4-.5-.9-.5-1.6v-23c0-.7.2-1.2.5-1.6.3-.4.8-.6,1.4-.6s1.1.2,1.4.6c.3.4.5.9.5,1.6v3.2c2.4-3.2,5.8-4.8,10.1-4.8h1.3c.7,0,1.2.2,1.6.5.4.3.6.7.6,1.3s-.2.9-.6,1.2c-.4.3-.9.4-1.6.4h-1.5c-3,0-5.4.9-7.2,2.6-1.8,1.7-2.6,4.1-2.6,7v11.6c0,.6-.2,1.2-.5,1.6-.3.4-.8.6-1.5.6s-1.1-.2-1.4-.6Z"/>
        </g>
        <g class="cls-4">
          <path class="cls-2" d="M106.4,255.9c-2-1.5-3-3.7-3-6.4s1-4.8,3.1-6.4,4.9-2.4,8.5-2.4,4,.3,5.6.9c1.6.6,2.9,1.3,3.8,2.3v-3.4c0-2-.7-3.6-2-4.7-1.3-1.1-3.3-1.6-5.9-1.6s-6.2.8-8.6,2.4c-.6.4-1.1.5-1.5.5s-.7-.1-1.1-.4c-.4-.3-.6-.7-.6-1.2s.2-1,.7-1.3c1.3-1,2.9-1.8,4.9-2.4s4-.9,6.1-.9c3.8,0,6.7.9,8.8,2.6,2.1,1.7,3.1,4.1,3.1,7.2v15.4c0,1.4-.6,2.1-1.9,2.1s-1-.2-1.4-.6c-.4-.4-.5-.9-.5-1.5v-1.9c-2.2,2.6-5.5,4-10,4s-6.2-.8-8.2-2.3ZM121.9,253.4c1.7-1.1,2.6-2.4,2.6-4.1s-.8-3-2.4-3.9c-1.6-.9-3.9-1.4-6.9-1.4s-4.4.5-5.8,1.4c-1.4.9-2,2.3-2,4.1s.7,3.1,2,4c1.3.9,3.2,1.4,5.7,1.4s5-.5,6.8-1.6Z"/>
        </g>
        <g class="cls-4">
          <path class="cls-2" d="M173.3,253.5c0,.4-.2.8-.5,1.3-.7,1-1.8,1.9-3.1,2.5-1.3.6-2.7.9-4.1.9-2.4,0-4.2-.7-5.6-2.1-1.4-1.4-2-3.3-2-5.7v-15.7h-2.9c-1.4,0-2.1-.6-2.1-1.7s.2-.9.6-1.2c.4-.3.9-.4,1.6-.4h2.9v-9.1c0-.7.2-1.2.5-1.6.3-.4.8-.6,1.5-.6s1.1.2,1.4.6c.3.4.5.9.5,1.6v9.1h7.3c.6,0,1.1.1,1.5.4.4.3.6.7.6,1.2,0,1.1-.7,1.7-2.1,1.7h-7.3v16c0,2.7,1.3,4.1,3.9,4.1s1.6-.2,2.2-.5c.7-.3,1.4-.8,2-1.6.5-.6,1.1-.9,1.6-.9s.7.1,1.1.4c.4.3.6.7.6,1.1Z"/>
        </g>
        <g class="cls-4">
          <path class="cls-2" d="M185.4,256.4c-2.2-1.2-3.9-2.9-5-5-1.1-2.1-1.7-4.3-1.7-6.8s.6-4.7,1.7-6.8c1.1-2.1,2.8-3.8,5-5,2.2-1.2,4.9-1.9,8-1.9s5.8.6,7.9,1.9c2.2,1.2,3.9,2.9,5,5,1.1,2.1,1.7,4.3,1.7,6.8s-.6,4.7-1.7,6.8c-1.1,2.1-2.8,3.8-5,5-2.2,1.2-4.8,1.9-7.9,1.9s-5.8-.6-8-1.9ZM201.1,252.1c1.9-1.8,2.9-4.3,2.9-7.5s-1-5.7-2.9-7.5c-1.9-1.8-4.5-2.7-7.7-2.7s-5.8.9-7.8,2.7c-1.9,1.8-2.9,4.3-2.9,7.5s1,5.7,2.9,7.5c1.9,1.8,4.5,2.7,7.8,2.7s5.8-.9,7.7-2.7Z"/>
          <path class="cls-2" d="M218.6,254.6c-2.6-2.4-3.8-5.7-3.8-9.9s.6-5,1.7-7.1c1.1-2.1,2.8-3.7,4.9-4.9,2.2-1.2,4.8-1.8,7.8-1.8s4.8.5,6.6,1.4,3.4,2.3,4.8,4v-17.2c0-.7.2-1.2.6-1.6.3-.4.8-.6,1.5-.6s1.1.2,1.4.6c.3.4.5.9.5,1.6v36.9c0,.7-.2,1.2-.5,1.6-.3.4-.8.6-1.4.6s-1.1-.2-1.4-.6c-.4-.4-.5-.9-.5-1.6v-3.4c-1.2,1.8-2.8,3.2-4.8,4.1-1.9.9-4.2,1.4-6.7,1.4-4.4,0-7.9-1.2-10.5-3.6ZM237.6,252.1c2-1.8,3-4.3,3-7.5s-.5-3.9-1.5-5.5c-1-1.6-2.4-2.7-4.1-3.6-1.7-.8-3.5-1.2-5.5-1.2-3.4,0-6,1-7.9,2.9-1.9,1.9-2.8,4.4-2.8,7.6s.9,5.9,2.8,7.6c1.9,1.7,4.5,2.5,7.9,2.5s6.2-.9,8.2-2.8Z"/>
          <path class="cls-2" d="M259.4,256.4c-2.2-1.2-3.9-2.9-5-5-1.1-2.1-1.7-4.3-1.7-6.8s.6-4.7,1.7-6.8c1.1-2.1,2.8-3.8,5-5,2.2-1.2,4.9-1.9,8-1.9s5.8.6,7.9,1.9c2.2,1.2,3.9,2.9,5,5,1.1,2.1,1.7,4.3,1.7,6.8s-.6,4.7-1.7,6.8c-1.1,2.1-2.8,3.8-5,5-2.2,1.2-4.8,1.9-7.9,1.9s-5.8-.6-8-1.9ZM275.1,252.1c1.9-1.8,2.9-4.3,2.9-7.5s-1-5.7-2.9-7.5c-1.9-1.8-4.5-2.7-7.7-2.7s-5.8.9-7.8,2.7c-1.9,1.8-2.9,4.3-2.9,7.5s1,5.7,2.9,7.5c1.9,1.8,4.5,2.7,7.8,2.7s5.8-.9,7.7-2.7Z"/>
          <path class="cls-2" d="M294.5,256.8c-2.2-.9-4-2.3-5.2-3.9-.2-.4-.4-.7-.4-1.1s0-.7.3-.9c.2-.3.5-.5.8-.6.3-.1.5-.2.7-.2.3,0,.6,0,.8.2.2.2.5.4.8.8,2.3,2.5,5.4,3.7,9.3,3.7s3.4-.3,4.5-1c1.1-.6,1.7-1.5,1.7-2.7s-.2-1.5-.7-2c-.4-.5-1.2-1-2.2-1.4-1.1-.4-2.8-1.1-5.2-1.9-2.3-.8-4.1-1.5-5.5-2.2-1.3-.7-2.3-1.5-2.9-2.4-.6-.9-1-2-1-3.3,0-2.1.9-3.7,2.7-5,1.8-1.2,4.2-1.9,7.2-1.9s4.3.4,6.2,1.2c1.9.8,3.3,1.8,4.3,3.1.3.4.4.8.4,1.1,0,.5-.3,1-.9,1.3-.4.2-.7.3-1.1.3-.6,0-1.2-.3-1.7-.8-.9-.9-1.9-1.6-3-2.1-1.1-.4-2.5-.7-4.2-.7s-3.3.3-4.3.9c-1,.6-1.5,1.5-1.5,2.6s.2,1.5.6,2c.4.5,1.1.9,2,1.3.9.4,2.5.9,4.8,1.7,2.6.9,4.6,1.7,6,2.4,1.4.8,2.4,1.6,3,2.5.6.9.9,2.1.9,3.4,0,2.1-.9,3.9-2.8,5.1-1.9,1.3-4.3,1.9-7.3,1.9s-4.9-.5-7.1-1.4Z"/>
        </g>
      </g>
    </g>
  </g>
</svg>