<?xml version="1.0" encoding="utf-8"?><svg version="1.1" id="Layer_1" xmlns="http://www.w3.org/2000/svg" xmlns:xlink="http://www.w3.org/1999/xlink" x="0px" y="0px" viewBox="0 0 90.33 122.88" style="enable-background:new 0 0 90.33 122.88" xml:space="preserve"><style type="text/css">.st0{fill-rule:evenodd;clip-rule:evenodd;}</style><g><path class="st0" d="M3.56,107.54h83.26v3.24h0c0,0.03,0,0.05,0,0.08c0.15,3.04-0.34,5.4-1.72,6.81c-1.37,1.39-3.75,2-7.41,1.6 c-0.1-0.02-0.19-0.02-0.29-0.02H11.08v0.01l-0.05,0c-2.68,0.09-4.52-0.48-5.67-1.6c-1.13-1.1-1.69-2.82-1.79-5.04 c0-0.02,0-0.04,0-0.07V107.54L3.56,107.54z M86.82,54.22H3.56v-3.9h0c0-0.04,0-0.07,0-0.11C2.83,39,7.98,32.1,13.99,24.03 c1.09-1.46,2.21-2.97,3.37-4.6H72.9c1.02,1.42,2.13,2.89,3.22,4.35c5.56,7.4,10.83,14.42,10.7,24.19 c-0.01,0.06-0.01,0.11-0.01,0.17V54.22L86.82,54.22z M82.95,3.33v12.52c0.41-0.19,0.78-0.45,1.1-0.77 c0.69-0.69,1.11-1.63,1.11-2.67V6.77c0-1.04-0.43-1.98-1.11-2.67C83.74,3.78,83.37,3.52,82.95,3.33L82.95,3.33z M80.62,16.19V2.99 H74.9v13.2H80.62L80.62,16.19z M10.46,2.99v13.2h5.11c0.18-0.11,0.39-0.19,0.61-0.22V2.99H10.46L10.46,2.99z M8.13,15.85V3.33 C7.72,3.52,7.34,3.78,7.03,4.1C6.34,4.79,5.92,5.73,5.92,6.77v5.65c0,1.04,0.43,1.98,1.11,2.67C7.34,15.4,7.72,15.66,8.13,15.85 L8.13,15.85z M18.52,2.99v12.96h5.72V2.99H18.52L18.52,2.99z M26.57,2.99v12.96h5.72V2.99H26.57L26.57,2.99z M34.63,2.99v12.96 h5.72V2.99H34.63L34.63,2.99z M42.68,2.99v12.96h5.72V2.99H42.68L42.68,2.99z M50.74,2.99v12.96h5.72V2.99H50.74L50.74,2.99z M58.79,2.99v12.96h5.72V2.99H58.79L58.79,2.99z M66.84,2.99v12.96h5.72V2.99H66.84L66.84,2.99z M9.69,0h71.7 c1.86,0,3.55,0.76,4.78,1.99c1.23,1.23,1.99,2.92,1.99,4.78v5.65c0,1.86-0.76,3.55-1.99,4.78c-1.23,1.23-2.92,1.99-4.78,1.99h-4.37 c0.63,0.86,1.26,1.69,1.88,2.52c5.92,7.88,11.54,15.37,11.4,26.31c0,0.04,0.01,0.09,0.01,0.13v62.64h0 c0.19,3.96-0.6,7.17-2.72,9.33c-2.12,2.16-5.43,3.14-10.25,2.63H11.08v-0.01c-3.66,0.11-6.33-0.8-8.15-2.58 c-1.81-1.76-2.7-4.27-2.84-7.39c-0.01-0.07-0.01-0.14-0.01-0.22V50.32h0C-0.7,37.9,4.79,30.54,11.19,21.95 c0.68-0.91,1.37-1.83,2.05-2.76H9.69c-1.86,0-3.55-0.76-4.78-1.99c-1.23-1.23-1.99-2.92-1.99-4.78V6.77c0-1.86,0.76-3.55,1.99-4.78 C6.14,0.76,7.83,0,9.69,0L9.69,0z M41.89,63.45h6.53c1.22,0,2.22,1,2.22,2.22v9.73h9.73c1.22,0,2.22,1,2.22,2.22v6.53 c0,1.22-1,2.22-2.22,2.22h-9.73v9.73c0,1.22-1,2.22-2.22,2.22h-6.53c-1.22,0-2.22-1-2.22-2.22v-9.73h-9.73 c-1.22,0-2.22-1-2.22-2.22v-6.53c0-1.22,1-2.22,2.22-2.22h9.73v-9.73C39.67,64.45,40.67,63.45,41.89,63.45L41.89,63.45z"/></g></svg>