<svg xmlns="http://www.w3.org/2000/svg" width="21.5" height="21.5" viewBox="0 0 21.5 21.5">
  <g id="_6124141_drugs_injection_pharmacy_syringe_vaccine_icon" data-name="6124141_drugs_injection_pharmacy_syringe_vaccine_icon" transform="translate(-2 -2)">
    <path id="Caminho_68" data-name="Caminho 68" d="M4,8.3V6.768A.768.768,0,0,1,4.768,6h6.143a.768.768,0,0,1,.768.768V8.3a.768.768,0,0,1-.768.768H4.768A.768.768,0,0,1,4,8.3Z" transform="translate(-0.464 -0.929)"/>
    <path id="Caminho_69" data-name="Caminho 69" d="M27.214,6.607a.768.768,0,0,1-.768.768H24.911v9.982a2.3,2.3,0,0,1-1.536,2.162v3.213a.768.768,0,1,1-1.536,0V19.519A2.3,2.3,0,0,1,20.3,17.357v-.768h1.536a.768.768,0,0,0,0-1.536H20.3V13.518h1.536a.768.768,0,0,0,0-1.536H20.3V10.446h1.536a.768.768,0,0,0,0-1.536H20.3V7.375H18.768a.768.768,0,0,1,0-1.536h3.071v-2.3h-.768a.768.768,0,0,1,0-1.536h3.071a.768.768,0,0,1,0,1.536h-.768v2.3h3.071A.768.768,0,0,1,27.214,6.607Z" transform="translate(-3.714)"/>
    <path id="XMLID_1026_" d="M9.679,15.071V12H5.071v3.071A3.072,3.072,0,0,0,2,18.143v6.911a.768.768,0,0,0,.768.768h9.214a.768.768,0,0,0,.768-.768V18.143A3.072,3.072,0,0,0,9.679,15.071Zm0,6.143H8.143V22.75H6.607V21.214H5.071V19.679H6.607V18.143H8.143v1.536H9.679Z" transform="translate(0 -2.321)"/>
  </g>
</svg>
