<svg xmlns="http://www.w3.org/2000/svg" width="20" height="18.751" viewBox="0 0 20 18.751">
  <path id="_9041299_heart_pulse_fill_icon" data-name="9041299_heart_pulse_fill_icon" d="M1.844,11.251A28.5,28.5,0,0,0,10,18.751a28.5,28.5,0,0,0,8.157-7.5H15a.625.625,0,0,1-.58-.392L12.6,6.305l-2,6.992a.625.625,0,0,1-1.181.061L7.362,8.21,5.52,10.973a.625.625,0,0,1-.52.278ZM1.1,10C-3.033,2.1,5.513-2.5,9.78,1.429c.075.069.149.14.22.214q.106-.111.22-.213C14.488-2.5,23.033,2.1,18.9,10H15.422L13.079,4.143A.625.625,0,0,0,11.9,4.2L9.9,11.2,8.08,6.643a.625.625,0,0,0-1.1-.114L4.665,10H1.1Z" transform="translate(0 0)" fill-rule="evenodd"/>
</svg>
