<svg xmlns="http://www.w3.org/2000/svg" width="24" height="23.221" viewBox="0 0 24 23.221">
  <g id="_753130_aid_first_health_healthcare_medical_icon" data-name="753130_aid_first_health_healthcare_medical_icon" transform="translate(-0.026 -1.065)">
    <path id="Caminho_65" data-name="Caminho 65" d="M1.261,24.624a.235.235,0,0,1-.235-.234V7.081a.235.235,0,0,1,.235-.234H6.622V3.2A1.148,1.148,0,0,1,7.814,2.074c.115,0,.682-.008,2.729-.008,2.836,0,6.832.009,6.832.009l.039,0c.005,0,.039,0,.091,0a1.275,1.275,0,0,1,.835.272,1.062,1.062,0,0,1,.417.86c.008.1.018.667,0,3.267l0,.379h5.372a.234.234,0,0,1,.234.234V24.39a.234.234,0,0,1-.234.234H1.261ZM9.9,20.783a.989.989,0,0,0,.988.988H14.5a.989.989,0,0,0,.987-.988V18.635h2.147a.989.989,0,0,0,.988-.988V14.029a.99.99,0,0,0-.988-.988H15.488V10.9a.989.989,0,0,0-.987-.988H10.889A.989.989,0,0,0,9.9,10.9v2.141H7.754a.989.989,0,0,0-.988.988v3.618a.989.989,0,0,0,.988.988H9.9ZM8.464,3.145a.7.7,0,0,0-.761.72V6.848h9.974V3.913a.791.791,0,0,0-.209-.545.72.72,0,0,0-.536-.214H8.6A1.053,1.053,0,0,0,8.464,3.145Z" transform="translate(-0.669 -0.669)" fill="#241f20"/>
    <path id="Caminho_66" data-name="Caminho 66" d="M9.883,1.816c2.825,0,6.806.009,6.806.009h.039l.031,0,.06,0a.9.9,0,0,1,.573.168.71.71,0,0,1,.3.613c.006.081.017.558,0,3.223l0,.755h5.587V23.535H.777V6.579H6.352V2.536a.766.766,0,0,1,.14-.388.747.747,0,0,1,.685-.325c.111,0,.672-.008,2.705-.008M6.677,6.579H17.365V3.287a1.167,1.167,0,0,0-.314-.81,1.1,1.1,0,0,0-.8-.328H7.973a1.487,1.487,0,0,0-.162-.009A1.078,1.078,0,0,0,6.677,3.233V6.579M8.868,12H7.1a1.361,1.361,0,0,0-1.36,1.36v3.6A1.361,1.361,0,0,0,7.1,18.321H8.868v1.764a1.361,1.361,0,0,0,1.359,1.359h3.6a1.361,1.361,0,0,0,1.359-1.359V18.321h1.764a1.361,1.361,0,0,0,1.36-1.359v-3.6A1.361,1.361,0,0,0,16.948,12H15.184V10.24a1.361,1.361,0,0,0-1.359-1.359h-3.6A1.361,1.361,0,0,0,8.868,10.24V12M9.883,1.065c-1.413,0-2.538,0-2.731.009A1.518,1.518,0,0,0,5.6,2.567V5.828H.635a.609.609,0,0,0-.609.609v17.24a.609.609,0,0,0,.609.609H23.418a.609.609,0,0,0,.608-.609V6.437a.609.609,0,0,0-.608-.609H18.444c.006-.985.016-3.016,0-3.283a1.416,1.416,0,0,0-.532-1.1,1.627,1.627,0,0,0-1.089-.373c-.08,0-.128,0-.128,0s-3.982-.008-6.807-.008ZM7.428,5.828v-2.6c0-.3.237-.342.383-.342a.648.648,0,0,1,.111.009h8.324a.358.358,0,0,1,.367.381V5.828H7.428ZM7.1,17.57a.61.61,0,0,1-.609-.609v-3.6a.611.611,0,0,1,.609-.609H9.619V10.24a.607.607,0,0,1,.609-.609h3.6a.606.606,0,0,1,.608.609v2.508h2.514a.611.611,0,0,1,.609.609v3.6a.61.61,0,0,1-.609.609H14.434v2.515a.607.607,0,0,1-.608.609h-3.6a.607.607,0,0,1-.609-.609V17.57Z" fill="#241f20"/>
  </g>
</svg>
