<svg xmlns="http://www.w3.org/2000/svg" width="23.277" height="22.75" viewBox="0 0 23.277 22.75">
  <path id="skin-hair-follicle-dermis-svgrepo-com" d="M13.475,8.424A24.929,24.929,0,0,0,9.9,2a.273.273,0,0,0-.388-.037h0a.273.273,0,0,0-.047.368c1.064,1.494,3.144,5.357,3.144,8.9,0,2.592-.848,3.886-.842,5.082a1.714,1.714,0,0,0,1.709,1.711,1.85,1.85,0,0,0,1.76-1.623C15.434,15.121,14.876,11.994,13.475,8.424Zm3.652,1.629a1.655,1.655,0,0,0-1.266.588,1.626,1.626,0,0,0-.363,1.323,10.035,10.035,0,0,0,.462,1.622,8.15,8.15,0,0,1,.589,2.831,2.953,2.953,0,1,1-5.906,0,7.532,7.532,0,0,1,.625-2.781,8.989,8.989,0,0,0,.5-1.673,1.626,1.626,0,0,0-.366-1.322,1.66,1.66,0,0,0-1.269-.589H2V24.647H25.277V10.054Zm-.446,1.282a.582.582,0,0,1,.446-.207H24.2v3.164a2.626,2.626,0,0,0-1.245.62,1.505,1.505,0,0,1-2.106,0,2.512,2.512,0,0,0-1.717-.659,2.471,2.471,0,0,0-1.674.626,13.167,13.167,0,0,0-.486-1.643,9.232,9.232,0,0,1-.418-1.45A.549.549,0,0,1,16.681,11.336Zm-6.546-.207a.587.587,0,0,1,.449.208.55.55,0,0,1,.126.45,8.2,8.2,0,0,1-.451,1.475,12.4,12.4,0,0,0-.518,1.627,2.483,2.483,0,0,0-1.687-.635,2.51,2.51,0,0,0-1.717.659,1.5,1.5,0,0,1-2.105,0,2.68,2.68,0,0,0-1.158-.6V11.128h7.061ZM3.074,23.572V15.431c.177.077-.578,8.308-.407,8.443.374.294,1.439-.3,2.317-.3s1.312.6,1.685.3c.317-.249.879,0,1.385,0,.231,0,4.627.038,5.075,0a17.613,17.613,0,0,0-2.994,0c.139.109-1.468-4.319-1.289-4.213-.005.108,0,4.1,0,4.213,0,.789,6.625-1.171,8.614,0,1.824-.031,1.525.508,2.727,0,.512-.217.464,0,.947,0,2.258,0,3.068,1.558,3.068-.7,0-.113-1.8.81-1.8.7.178-.105.42.109.559,0,.317-.249.158,0,.664,0s.636-.551.954-.3c.374.294-.6-4.2.281-4.2s-.374-3.739,0-4.033c.2-.156-.872.13-.653.055v8.175l-10.608-.892-10.52.892Z" transform="translate(-2 -1.897)"/>
</svg>
