<svg xmlns="http://www.w3.org/2000/svg" width="14.663" height="20" viewBox="0 0 14.663 20">
  <g id="blood_drop" data-name="blood drop" transform="translate(-5 -0.992)">
    <path id="Caminho_50" data-name="Caminho 50" d="M12.778,1.164a.666.666,0,0,0-.893,0C11.6,1.417,5,7.4,5,13.661a7.331,7.331,0,0,0,14.663,0C19.663,7.4,13.058,1.417,12.778,1.164Zm1.813,17.1a5.4,5.4,0,0,1-2.259.5.666.666,0,1,1,0-1.333,3.906,3.906,0,0,0,1.693-.38.669.669,0,0,1,.567,1.213Zm1.633-1.193a.665.665,0,1,1-.973-.906,4,4,0,0,0,1.08-2.733.666.666,0,1,1,1.333,0,5.332,5.332,0,0,1-1.44,3.639Z"/>
  </g>
</svg>
