<svg xmlns="http://www.w3.org/2000/svg" width="23.787" height="24.15" viewBox="0 0 23.787 24.15">
  <g id="sus-sistema-unico-de-saude" transform="translate(-14934 -7362)">
    <path id="Caminho_61" data-name="Caminho 61" d="M15324.795,7362h7.625v7.625h-7.625Zm-6.795,8.145h22.441v7.782h-9.053l-7.312-7.384Zm13.539,8.343.881.039.156,5.666-.518-5.067Zm-7.527.7h7.627a43.432,43.432,0,0,0,.662,6.965l-7.643-.01a46.156,46.156,0,0,1-.643-6.955Z" transform="translate(-382.654)" fill-rule="evenodd"/>
    <path id="Caminho_62" data-name="Caminho 62" d="M14934,9754q3.557.437,7.113.554l7.582,7.862a97.384,97.384,0,0,1-14.7-.871Z" transform="translate(-0.001 -2383.618)" fill-rule="evenodd"/>
  </g>
</svg>
