<svg xmlns="http://www.w3.org/2000/svg" width="20" height="18.621" viewBox="0 0 20 18.621">
  <g id="Gastrointestinal_and_liver" transform="translate(-36 -51.169)">
    <path id="Caminho_55" data-name="Caminho 55" d="M53.911,53.772a5.865,5.865,0,0,0-8.2.665h-1.9a1.652,1.652,0,0,1-1.65-1.65V51.169H39.295v1.617A4.517,4.517,0,0,0,43.807,57.3h.565a21.047,21.047,0,0,1-.352,3.228A5.925,5.925,0,0,1,41.433,63.8a2.341,2.341,0,0,0-1.062,1.176A4.843,4.843,0,0,0,36,69.79h2.146a2.694,2.694,0,0,1,2.362-2.669,2.318,2.318,0,0,0,.141.21c1.013,1.338,2.963.97,4.405.773a14.015,14.015,0,0,0,9.09-4.671A7.983,7.983,0,0,0,56,58.294,6.15,6.15,0,0,0,53.911,53.772ZM52.156,59.6a3.239,3.239,0,0,0-2.329.969,3.24,3.24,0,0,1-2.329.969,3.006,3.006,0,0,1-2.046-.752h0a9.844,9.844,0,0,0,.276-2.189,6.559,6.559,0,0,1,.209-1.679,4.473,4.473,0,0,1,1.612-2.214,4.369,4.369,0,0,1,2.591-.83,4.45,4.45,0,0,1,2.843,1.013,4.675,4.675,0,0,1,1.561,3.451,5.617,5.617,0,0,1-.329,2.022A3.013,3.013,0,0,0,52.156,59.6Z"/>
  </g>
</svg>
