<svg xmlns="http://www.w3.org/2000/svg" width="20" height="21.946" viewBox="0 0 20 21.946">
  <path id="_6124142_corona_covid_disease_infected_virus_icon" data-name="6124142_corona_covid_disease_infected_virus_icon" d="M22.849,16.71A.784.784,0,0,0,21.778,17L19.7,15.8a7,7,0,0,0,.548-2.05c.016,0,.029.009.045.009h1.568a.784.784,0,1,0,0-1.568H20.3c-.016,0-.029.008-.045.009a7.013,7.013,0,0,0-.548-2.05l2.075-1.2a.784.784,0,0,0,1.358-.784l-.784-1.358a.784.784,0,1,0-1.358.784h0l-2.081,1.2a7.064,7.064,0,0,0-1.46-1.468L18.6,5.564a.784.784,0,1,0-1.313-.856L16.1,6.53a6.966,6.966,0,0,0-2.076-.564v-2.4a.784.784,0,0,0,0-1.568H12.458a.784.784,0,0,0,0,1.568v2.4a6.988,6.988,0,0,0-2.076.564L9.2,4.707a.784.784,0,0,0-1.314.856L9.028,7.324a7.083,7.083,0,0,0-1.46,1.468l-2.08-1.2h0A.784.784,0,0,0,4.13,6.808L3.346,8.165A.784.784,0,1,0,4.7,8.949l2.075,1.2a7,7,0,0,0-.548,2.05c-.015,0-.028-.009-.044-.009H4.62a.784.784,0,1,0,0,1.568H6.187c.016,0,.029-.008.045-.009A7.013,7.013,0,0,0,6.78,15.8L4.7,17a.784.784,0,0,0-1.358.784l.784,1.358a.784.784,0,0,0,1.358-.784h0l2.081-1.2a7.064,7.064,0,0,0,1.46,1.468L7.883,20.382a.785.785,0,0,0,.229,1.085A.782.782,0,0,0,9.2,21.239l1.186-1.822a7,7,0,0,0,2.076.564v2.4a.784.784,0,1,0,0,1.568h1.568a.784.784,0,1,0,0-1.568v-2.4a6.988,6.988,0,0,0,2.076-.564l1.186,1.822a.784.784,0,1,0,1.313-.856l-1.147-1.761a7.083,7.083,0,0,0,1.46-1.468l2.081,1.2h0a.784.784,0,1,0,1.358.784l.784-1.358A.785.785,0,0,0,22.849,16.71Zm-12.743-.6a1.568,1.568,0,1,1,1.568-1.568A1.567,1.567,0,0,1,10.106,16.108Zm3.527-5.487a1.176,1.176,0,1,1,1.176-1.176A1.176,1.176,0,0,1,13.633,10.622Zm1.176,5.095a1.176,1.176,0,1,1,1.176,1.176A1.176,1.176,0,0,1,14.809,15.716Z" transform="translate(-3.241 -2)"/>
</svg>
