<svg xmlns="http://www.w3.org/2000/svg" width="20" height="15.556" viewBox="0 0 20 15.556">
  <path id="_8665290_eye_vision_view_icon" data-name="8665290_eye_vision_view_icon" d="M19.878,39.156C18,34.9,14.267,32,10,32S2,34.9.12,39.156a2.131,2.131,0,0,0-.12.622,1.78,1.78,0,0,0,.12.591C2,44.656,5.733,47.556,10,47.556s8-2.9,9.878-7.156A2.357,2.357,0,0,0,20,39.778,2.141,2.141,0,0,0,19.878,39.156ZM15,39.778a5,5,0,1,1-5-5A5,5,0,0,1,15,39.778Zm-5-3.333a2.462,2.462,0,0,0-.3.028,2.163,2.163,0,0,1,.3,1.083,2.222,2.222,0,0,1-2.222,2.222,2.133,2.133,0,0,1-1.087-.3c-.01.1-.024.212-.024.3A3.333,3.333,0,1,0,10,36.444Z" transform="translate(0 -32)"/>
</svg>
