<svg xmlns="http://www.w3.org/2000/svg" width="20" height="20" viewBox="0 0 20 20">
  <path id="_10863451_fi_br_crutches_icon" data-name="10863451_fi_br_crutches_icon" d="M19.635,19.635a1.251,1.251,0,0,1-1.768,0L14.533,16.3A1.25,1.25,0,0,1,16.3,14.534l3.333,3.333a1.249,1.249,0,0,1,0,1.768ZM17.721,8.762,13.283,13.2a8.932,8.932,0,0,1-6.358,2.633h-.99l-3.8,3.8A1.25,1.25,0,0,1,.366,17.867l3.8-3.8v-.99a9.044,9.044,0,0,1,.262-2.166L2.28,8.762c-.258.158-.416.244-.438.256a1.25,1.25,0,0,1-1.185-2.2A16.727,16.727,0,0,0,4.052,4.18,19.112,19.112,0,0,0,6.831.631,1.25,1.25,0,0,1,9,1.868c-.013.022-.1.168-.247.407L10,3.519l1.243-1.243c-.151-.238-.234-.385-.247-.407A1.25,1.25,0,0,1,13.169.631,19.167,19.167,0,0,0,15.949,4.18a16.833,16.833,0,0,0,3.4,2.638,1.25,1.25,0,0,1-1.187,2.2c-.022-.012-.18-.1-.438-.256ZM5.468,8.414A9.055,9.055,0,0,1,6.8,6.719L8.233,5.287l-.958-.958A21.156,21.156,0,0,1,5.82,5.949,19.951,19.951,0,0,1,4.34,7.287L5.467,8.414Zm1.458,4.921a6.444,6.444,0,0,0,3.621-1.1L7.769,9.456a6.444,6.444,0,0,0-1.1,3.622v.258h.258Zm8.736-6.048a19.951,19.951,0,0,1-1.48-1.338,21,21,0,0,1-1.456-1.619L9.453,7.6,12.4,10.55l3.263-3.263Z" transform="translate(0 -0.001)"/>
</svg>
