<svg xmlns="http://www.w3.org/2000/svg" width="14.667" height="20" viewBox="0 0 14.667 20">
  <path id="_9034688_ear_icon" data-name="9034688_ear_icon" d="M87.333,16A7.344,7.344,0,0,0,80,23.333V31.94a4.066,4.066,0,0,0,1.167,2.854A3.938,3.938,0,0,0,84,36a4.491,4.491,0,0,0,3.755-1.934A11.914,11.914,0,0,0,88.4,33.03a10.465,10.465,0,0,1,2.632-3.364,8.851,8.851,0,0,0,2.583-2.655,6.932,6.932,0,0,0,1.054-3.678A7.343,7.343,0,0,0,87.333,16Zm4,7.667A.667.667,0,0,1,90.667,23,3.352,3.352,0,0,0,84,23v1.267A9.11,9.11,0,0,1,86.678,24a2,2,0,0,1,1.608,3.162c-.013.017-.025.034-.04.05a9.962,9.962,0,0,0-1.6,2.292.667.667,0,1,1-1.289-.339,10.642,10.642,0,0,1,1.861-2.8.667.667,0,0,0-.557-1.034h-.037A6.832,6.832,0,0,0,84,25.68V28a.667.667,0,0,1-1.333,0V23A4.679,4.679,0,0,1,92,23,.667.667,0,0,1,91.333,23.667Z" transform="translate(-80 -16)"/>
</svg>
