<svg xmlns="http://www.w3.org/2000/svg" width="14.998" height="20" viewBox="0 0 14.998 20">
  <path id="_8541782_baby_kid_child_icon" data-name="8541782_baby_kid_child_icon" d="M7.534,6.25A3.125,3.125,0,1,0,4.409,3.125,3.124,3.124,0,0,0,7.534,6.25ZM5.448,15.969l1-1.25-2.4-2L2.253,14.961a1.565,1.565,0,0,0-.031,1.914l1.875,2.5A1.563,1.563,0,0,0,6.6,17.5Zm5.574-3.25-2.4,2,1,1.25L8.472,17.5a1.563,1.563,0,0,0,2.5,1.875l1.875-2.5a1.565,1.565,0,0,0-.031-1.914l-1.793-2.242Zm3.727-7.055a1.564,1.564,0,0,0-2.176-.383L10.987,6.395a6.042,6.042,0,0,1-6.906,0L2.5,5.285A1.562,1.562,0,1,0,.7,7.84L2.284,8.953a9.269,9.269,0,0,0,2.125,1.09V11.25h6.25v-1.2a9.269,9.269,0,0,0,2.125-1.09L14.37,7.844a1.565,1.565,0,0,0,.379-2.18Z" transform="translate(-0.036)"/>
</svg>
