<svg xmlns="http://www.w3.org/2000/svg" width="20.363" height="14.251" viewBox="0 0 20.363 14.251">
  <g id="Chest_and_respiratory_system" transform="translate(-36 -102.034)">
    <path id="Caminho_51" data-name="Caminho 51" d="M313.776,143.283a16.055,16.055,0,0,0-4.829-9.543,1.574,1.574,0,0,0-2.6,1.282V143.7a2.45,2.45,0,0,0,2.377,2.516h2.7A2.483,2.483,0,0,0,313.776,143.283Z" transform="translate(-257.444 -29.932)"/>
    <path id="Caminho_52" data-name="Caminho 52" d="M40.86,133.74a16.056,16.056,0,0,0-4.829,9.543,2.483,2.483,0,0,0,2.347,2.933h2.7a2.45,2.45,0,0,0,2.377-2.516v-8.678A1.574,1.574,0,0,0,40.86,133.74Z" transform="translate(0 -29.932)"/>
    <path id="Caminho_53" data-name="Caminho 53" d="M231.533,102.034H230.09v3.4a1.487,1.487,0,0,1-.437,1.053v1.681a2.953,2.953,0,0,0,1.158-.812,2.952,2.952,0,0,0,1.158.812v-1.681a1.487,1.487,0,0,1-.437-1.053Z" transform="translate(-184.63 0)"/>
  </g>
</svg>
