<svg xmlns="http://www.w3.org/2000/svg" width="20" height="20.001" viewBox="0 0 20 20.001">
  <path id="shoulder-joint_18555652" d="M9.908,7.539a3.342,3.342,0,0,1-1.781,3.792,2.475,2.475,0,0,0-1.461,2.2V20h-5V12.884a2.362,2.362,0,0,0-.719-1.7A3.086,3.086,0,0,1,.02,8.605,3.165,3.165,0,0,1,1.936,6.081,3,3,0,0,1,4.249,6.05,3.326,3.326,0,0,1,9.908,7.538ZM17.084,0a7.256,7.256,0,0,0-2.514.443,7.839,7.839,0,0,1-5.211,0A8.4,8.4,0,0,0,6.667,0a4.63,4.63,0,0,0-4.5,4.273s.007,0,.009,0a4.617,4.617,0,0,1,1.65-.056,5,5,0,1,1,5.03,8.607.863.863,0,0,0-.526.7v.479l4.273,4.534A4.265,4.265,0,0,0,15.417,20,4.589,4.589,0,0,0,20,15.418V2.917A2.79,2.79,0,0,0,17.084,0Z" transform="translate(0)"/>
</svg>
