<svg xmlns="http://www.w3.org/2000/svg" width="16.752" height="20" viewBox="0 0 16.752 20">
  <path id="_6549573_emotional_health_mental_mind_passion_icon" data-name="6549573_emotional_health_mental_mind_passion_icon" d="M86.958,51.024a4.716,4.716,0,0,1,.475-3.629A7.546,7.546,0,1,0,73.395,43.52h0v.026L71.8,47.205a.763.763,0,0,0,.34.977l1.254.67v3.1a1.615,1.615,0,0,0,1.615,1.615h2.955l.472,1.763a.9.9,0,0,0,1.106.639l7.283-1.951a.9.9,0,0,0,.639-1.106Zm-2.281-6.761-.28.28,0,0-3.479,3.479L77.43,44.543l-.285-.285a2.463,2.463,0,1,1,3.484-3.484l.285.285.28-.28a2.463,2.463,0,0,1,3.484,3.484Z" transform="translate(-71.736 -35.999)"/>
</svg>
