<svg xmlns="http://www.w3.org/2000/svg" width="15" height="27.576" viewBox="0 0 15 27.576">
  <g id="_9034934_woman_icon" data-name="9034934_woman_icon" transform="translate(-117.001)">
    <circle id="Elipse_7" data-name="Elipse 7" cx="3.016" cy="3.016" r="3.016" transform="translate(121.458)"/>
    <path id="Caminho_54" data-name="Caminho 54" d="M131.954,136.064l-.556-1.853V134.2l-1.21-4.032h0l-.135-.455a2.417,2.417,0,0,0-2.316-1.728h-6.463a2.415,2.415,0,0,0-2.316,1.728l-.135.455h0l-1.21,4.032v.006l-.559,1.853a1.093,1.093,0,0,0,.677,1.354,1.077,1.077,0,0,0,1.379-.71l1.378-4.592h0l.117-.389a.431.431,0,0,1,.836.141.419.419,0,0,1-.009.087h0l-2.355,7.852a.862.862,0,0,0,.825,1.11h1.562v6.177a1.319,1.319,0,1,0,2.585,0v-6.177h.862v6.177a1.319,1.319,0,1,0,2.585,0v-6.177h1.616a.862.862,0,0,0,.826-1.11l-2.356-7.853a.4.4,0,0,1-.009-.086.431.431,0,0,1,.837-.142l.117.389h0l1.377,4.592a1.077,1.077,0,0,0,1.378.708A1.091,1.091,0,0,0,131.954,136.064Z" transform="translate(0 -121.097)"/>
  </g>
</svg>
