<svg xmlns="http://www.w3.org/2000/svg" width="13.333" height="28.486" viewBox="0 0 13.333 28.486">
  <g id="g1517" transform="translate(0 0.909)">
    <g id="g1519" transform="translate(3.673 -0.909)">
      <path id="path1521" d="M58.032,5.988a2.994,2.994,0,1,0-2.994-2.994A2.994,2.994,0,0,0,58.032,5.988Z" transform="translate(-55.038)"/>
      <path id="path1523" d="M95.872,40.835" transform="translate(-92.878 -37.841)"/>
    </g>
    <path id="path1525" d="M3.638,90.683C1.621,90.683,0,91.9,0,93.426v6.488c0,1.261,2.487,1.261,2.487,0V93.981h.589v16.244c0,1.686,3.312,1.637,3.312,0V100.8h.57v9.429c0,1.637,3.33,1.686,3.33,0V93.981h.575v5.932c0,1.271,2.474,1.271,2.47,0V93.464c0-1.4-1.469-2.779-3.682-2.779Z" transform="translate(0 -83.895)"/>
  </g>
</svg>
