<svg xmlns="http://www.w3.org/2000/svg" width="18.577" height="20" viewBox="0 0 18.577 20">
  <g id="Layer_3" transform="translate(-1.753 -0.048)">
    <path id="Caminho_67" data-name="Caminho 67" d="M20.33,5.3A4.308,4.308,0,0,0,16.022.995a4.233,4.233,0,0,0-2.5.811s-.007,0-.01,0a3.384,3.384,0,0,1-3.486-.233l-.005.01A4.764,4.764,0,0,0,1.754,4.829c-.063,2.187,2.4,9.062,3.405,11.782l.5,1.513a2.4,2.4,0,0,0,.086.26l.045.133.005-.005a.091.091,0,0,0,.009.015,7.13,7.13,0,0,0,.571.916v-.008a1.615,1.615,0,0,0,2.685-.228l.013-.023a1.6,1.6,0,0,0,.171-.479.046.046,0,0,0,0-.007c.3-1.4,1.48-6.378,1.48-6.378s-.008-.025-.008-.039a.8.8,0,0,1,.021-.105c.008-.074.015-.12.015-.12l.008.008a.765.765,0,0,1,.73-.555.754.754,0,0,1,.442.155c.013.008.025.018.039.027a.759.759,0,0,1,.292.591s1.363,5,1.531,6.254c0,.02.009.034.01.053a1.64,1.64,0,0,0,.15.535,1.4,1.4,0,0,0,.825.8l.033,0a1.616,1.616,0,0,0,1.852-.462h0s.01-.014.013-.016l.01-.013a3.511,3.511,0,0,0,.482-.774h0l.016-.038s0-.005,0-.008a.009.009,0,0,0,0-.005l.06-.145a.292.292,0,0,0,.029-.052h0l.013-.039a.225.225,0,0,0,.01-.026l.275-.759h-.005c1.465-3.323,2.327-9.047,2.624-11.315A4.306,4.306,0,0,0,20.33,5.3Z" fill="#241f20"/>
  </g>
</svg>
