<svg xmlns="http://www.w3.org/2000/svg" width="23.5" height="23.55" viewBox="0 0 23.5 23.55">
  <g id="_5978314_corona_coronavirus_health_injection_medical_icon" data-name="5978314_corona_coronavirus_health_injection_medical_icon" transform="translate(-0.5 -0.5)">
    <path id="Caminho_56" data-name="Caminho 56" d="M15.85,13.8l1.05-1.05-2.6-2.6.7-.7,2.6,2.6.85-.85a1.54,1.54,0,0,0,.45-1,1.4,1.4,0,0,0-.4-1l1.6-1.6-.35-2.2L24,1.2,23.3.5,19.05,4.7,16.9,4.35l-1.6,1.6h0a1.48,1.48,0,0,0-2.05,0l-8.7,8.6L3.1,13.1l-.7.7,1.45,1.45h0L4.6,16,1.95,18.6l-.75-.75-.7.7.75.75,4.5,4.45.7-.7L5.7,22.3l2.65-2.6,2.2,2.2.7-.7L9.8,19.75l1.8-1.8L9,15.35l.7-.7,2.6,2.6,1.05-1.05-2.6-2.6.7-.7,2.6,2.6,1.05-1.05-2.6-2.6.7-.7ZM5,21.6,2.65,19.3,5.3,16.7,7.65,19Z"/>
    <path id="Caminho_57" data-name="Caminho 57" d="M35.55,23.9l-.4.65c-.35.55-3.45,5.4-3.45,7.35a3.884,3.884,0,0,0,3.85,3.85A3.82,3.82,0,0,0,39.4,31.9c0-1.95-3.1-6.8-3.45-7.35Z" transform="translate(-15.6 -11.7)"/>
  </g>
</svg>
