<svg xmlns="http://www.w3.org/2000/svg" width="23" height="20.306" viewBox="0 0 23 20.306">
  <g id="Medicine" transform="translate(-56.021 -79.446)">
    <path id="Caminho_58" data-name="Caminho 58" d="M168.238,130.044a4.616,4.616,0,0,0-6.527,0l-4.121,4.121h0l-4.121,4.121A4.616,4.616,0,1,0,160,144.813l4.121-4.121,4.121-4.121A4.616,4.616,0,0,0,168.238,130.044Zm-.976,5.552-4.121,4.121-4.576-4.576,4.121-4.121a3.236,3.236,0,0,1,4.576,4.576Z" transform="translate(-90.569 -46.414)"/>
    <path id="Caminho_59" data-name="Caminho 59" d="M96.637,113.276l-6.787,6.787a4.848,4.848,0,0,0,6.787-6.787Z" transform="translate(-31.884 -31.885)"/>
    <path id="Caminho_60" data-name="Caminho 60" d="M57.44,80.865a4.851,4.851,0,0,0-.449,6.338l6.787-6.787A4.851,4.851,0,0,0,57.44,80.865Z" transform="translate(0 0)"/>
  </g>
</svg>
